<svg width="28" height="36" viewBox="0 0 28 36" fill="none" xmlns="http://www.w3.org/2000/svg">
<path d="M3.33716 34.7461H26.9086" stroke="#0152A8" stroke-width="2" stroke-linecap="round" stroke-linejoin="round"/>
<path d="M14.3366 19.0316C16.9402 19.0316 19.0509 16.9209 19.0509 14.3173C19.0509 11.7137 16.9402 9.60303 14.3366 9.60303C11.733 9.60303 9.62231 11.7137 9.62231 14.3173C9.62231 16.9209 11.733 19.0316 14.3366 19.0316Z" stroke="#0152A8" stroke-width="2" stroke-linecap="round" stroke-linejoin="round"/>
<path d="M26.9077 14.4384C26.9077 25.8615 14.3363 34.7461 14.3363 34.7461C14.3363 34.7461 1.76489 25.8615 1.76489 14.4384C1.76489 11.0722 3.08938 7.84385 5.44698 5.46358C7.80458 3.08332 11.0022 1.74609 14.3363 1.74609C17.6705 1.74609 20.8681 3.08332 23.2257 5.46358C25.5833 7.84385 26.9077 11.0722 26.9077 14.4384V14.4384Z" stroke="#0152A8" stroke-width="2" stroke-linecap="round" stroke-linejoin="round"/>
</svg>
