<svg width="36" height="36" viewBox="0 0 36 36" fill="none" xmlns="http://www.w3.org/2000/svg">
<path d="M24.5603 18.2425C24.5603 22.0394 21.4823 25.1175 17.6853 25.1175C13.8884 25.1175 10.8103 22.0394 10.8103 18.2425C10.8103 14.4455 13.8884 11.3675 17.6853 11.3675C21.4823 11.3675 24.5603 14.4455 24.5603 18.2425ZM24.5603 18.2425C24.5603 22.0409 25.9353 25.1175 29.3728 25.1175C32.8103 25.1175 34.1853 22.0409 34.1853 18.2425C34.1844 14.5662 32.9559 10.9956 30.6947 8.09712C28.4334 5.19863 25.269 3.13831 21.7034 2.24307C18.1379 1.34784 14.3755 1.66897 11.0132 3.15551C7.651 4.64205 4.88148 7.20886 3.14415 10.4486C1.40682 13.6884 0.80118 17.4156 1.42334 21.0388C2.0455 24.662 3.85981 27.9736 6.5784 30.4482C9.29699 32.9229 12.7641 34.4187 16.4297 34.6985C20.0952 34.9782 23.7492 34.0258 26.8119 31.9924M24.5603 18.2425V11.3675" stroke="#0152A8" stroke-width="2" stroke-linecap="round" stroke-linejoin="round"/>
</svg>
