<svg width="216" height="33" viewBox="0 0 216 33" fill="none" xmlns="http://www.w3.org/2000/svg">
<path d="M52.9295 25.5728L52.9295 7.32275L55.1795 7.32275L55.1795 15.1228L61.0295 15.1228L61.0295 7.32276L63.2795 7.32276L63.2795 25.5728L61.0295 25.5728L61.0295 17.1728L55.1795 17.1728L55.1795 25.5728L52.9295 25.5728ZM73.0947 25.8228C72.0114 25.8228 71.0614 25.6061 70.2447 25.1728C69.4447 24.7228 68.8197 24.0894 68.3697 23.2728C67.9197 22.4394 67.6947 21.4561 67.6947 20.3228L67.6947 17.0728C67.6947 15.9228 67.9197 14.9394 68.3697 14.1228C68.8197 13.3061 69.4447 12.6811 70.2447 12.2478C71.0614 11.7978 72.0114 11.5728 73.0947 11.5728C74.1781 11.5728 75.1197 11.7894 75.9197 12.2228C76.7364 12.6561 77.3697 13.2644 77.8197 14.0478C78.2697 14.8311 78.4947 15.7561 78.4947 16.8228L78.4947 19.2728L69.8947 19.2728L69.8947 20.5728C69.8947 21.5894 70.1864 22.3978 70.7697 22.9978C71.3531 23.5811 72.1281 23.8728 73.0947 23.8728C73.9281 23.8728 74.6114 23.7144 75.1447 23.3978C75.6947 23.0644 76.0281 22.6228 76.1447 22.0728L78.3947 22.0728C78.2447 23.2228 77.6864 24.1394 76.7197 24.8228C75.7531 25.4894 74.5447 25.8228 73.0947 25.8228ZM76.2947 17.7478L76.2947 16.8228C76.2947 15.7394 76.0114 14.9061 75.4447 14.3228C74.8947 13.7228 74.1114 13.4228 73.0947 13.4228C72.0781 13.4228 71.2864 13.7228 70.7197 14.3228C70.1697 14.9061 69.8947 15.7394 69.8947 16.8228L69.8947 17.5228L76.4697 17.5228L76.2947 17.7478ZM86.885 25.8228C85.4683 25.8228 84.3433 25.4311 83.51 24.6478C82.6766 23.8478 82.26 22.8061 82.26 21.5228C82.26 20.6728 82.4516 19.9311 82.835 19.2978C83.2183 18.6644 83.7516 18.1728 84.435 17.8228C85.1183 17.4561 85.9016 17.2728 86.785 17.2728L91.035 17.2728L91.035 16.1978C91.035 15.2978 90.7933 14.6311 90.31 14.1978C89.8266 13.7478 89.0933 13.5228 88.11 13.5228C87.2433 13.5228 86.5433 13.6811 86.01 13.9978C85.4766 14.3144 85.1933 14.7561 85.16 15.3228L82.91 15.3228C82.9933 14.2394 83.4933 13.3478 84.41 12.6478C85.3433 11.9311 86.5766 11.5728 88.11 11.5728C89.7766 11.5728 91.0516 11.9728 91.935 12.7728C92.835 13.5728 93.285 14.6894 93.285 16.1228L93.285 25.5728L91.06 25.5728L91.06 23.0728L90.685 23.0728L91.035 22.5728C91.035 23.2394 90.8683 23.8144 90.535 24.2978C90.2016 24.7811 89.7266 25.1561 89.11 25.4228C88.4933 25.6894 87.7516 25.8228 86.885 25.8228ZM87.435 23.9228C88.535 23.9228 89.41 23.6561 90.06 23.1228C90.71 22.5894 91.035 21.8644 91.035 20.9478L91.035 19.0228L87.035 19.0228C86.3016 19.0228 85.7016 19.2478 85.235 19.6978C84.785 20.1311 84.56 20.7144 84.56 21.4478C84.56 22.2144 84.81 22.8228 85.31 23.2728C85.8266 23.7061 86.535 23.9228 87.435 23.9228ZM105.075 25.5728C104.275 25.5728 103.575 25.4144 102.975 25.0978C102.375 24.7811 101.909 24.3311 101.575 23.7478C101.242 23.1644 101.075 22.4811 101.075 21.6978L101.075 9.37276L96.3252 9.37276L96.3252 7.32276L103.325 7.32276L103.325 21.6978C103.325 22.2644 103.484 22.7144 103.8 23.0478C104.117 23.3644 104.542 23.5228 105.075 23.5228L109.325 23.5228L109.325 25.5728L105.075 25.5728ZM119.44 25.5728C118.307 25.5728 117.399 25.2478 116.715 24.5978C116.032 23.9311 115.69 23.0478 115.69 21.9478L115.69 13.8728L111.74 13.8728L111.74 11.8228L115.69 11.8228L115.69 7.94776L117.94 7.94776L117.94 11.8228L123.565 11.8228L123.565 13.8728L117.94 13.8728L117.94 21.9478C117.94 22.4144 118.074 22.7978 118.34 23.0978C118.624 23.3811 118.99 23.5228 119.44 23.5228L123.44 23.5228L123.44 25.5728L119.44 25.5728ZM127.856 25.5728L127.856 7.32277L130.106 7.32277L130.106 11.8228L130.106 14.4478L130.581 14.4478L130.106 14.9728C130.106 13.8894 130.431 13.0561 131.081 12.4728C131.731 11.8728 132.631 11.5728 133.781 11.5728C135.164 11.5728 136.264 11.9978 137.081 12.8478C137.897 13.6978 138.306 14.8561 138.306 16.3228L138.306 25.5728L136.056 25.5728L136.056 16.6978C136.056 15.6644 135.789 14.8728 135.256 14.3228C134.739 13.7561 134.031 13.4728 133.131 13.4728C132.197 13.4728 131.456 13.7644 130.906 14.3478C130.372 14.9311 130.106 15.7561 130.106 16.8228L130.106 25.5728L127.856 25.5728ZM163.236 25.8228C162.136 25.8228 161.178 25.6144 160.361 25.1978C159.561 24.7811 158.936 24.1811 158.486 23.3978C158.053 22.5978 157.836 21.6561 157.836 20.5728L157.836 12.3228C157.836 11.2228 158.053 10.2811 158.486 9.49777C158.936 8.71444 159.561 8.11444 160.361 7.69777C161.178 7.28111 162.136 7.07277 163.236 7.07277C164.336 7.07277 165.286 7.28944 166.086 7.72277C166.886 8.13944 167.503 8.73944 167.936 9.52277C168.369 10.3061 168.586 11.2394 168.586 12.3228L166.336 12.3228C166.336 11.2894 166.061 10.4978 165.511 9.94777C164.978 9.38111 164.219 9.09777 163.236 9.09777C162.253 9.09777 161.478 9.38111 160.911 9.94777C160.361 10.4978 160.086 11.2894 160.086 12.3228L160.086 20.5728C160.086 21.6061 160.361 22.4061 160.911 22.9728C161.478 23.5228 162.253 23.7978 163.236 23.7978C164.219 23.7978 164.978 23.5228 165.511 22.9728C166.061 22.4061 166.336 21.6061 166.336 20.5728L168.586 20.5728C168.586 21.6394 168.369 22.5728 167.936 23.3728C167.503 24.1561 166.886 24.7644 166.086 25.1978C165.286 25.6144 164.336 25.8228 163.236 25.8228ZM176.826 25.8228C175.41 25.8228 174.285 25.4311 173.451 24.6478C172.618 23.8478 172.201 22.8061 172.201 21.5228C172.201 20.6728 172.393 19.9311 172.776 19.2978C173.16 18.6644 173.693 18.1728 174.376 17.8228C175.06 17.4561 175.843 17.2728 176.726 17.2728L180.976 17.2728L180.976 16.1978C180.976 15.2978 180.735 14.6311 180.251 14.1978C179.768 13.7478 179.035 13.5228 178.051 13.5228C177.185 13.5228 176.485 13.6811 175.951 13.9978C175.418 14.3144 175.135 14.7561 175.101 15.3228L172.851 15.3228C172.935 14.2394 173.435 13.3478 174.351 12.6478C175.285 11.9311 176.518 11.5728 178.051 11.5728C179.718 11.5728 180.993 11.9728 181.876 12.7728C182.776 13.5728 183.226 14.6894 183.226 16.1228L183.226 25.5728L181.001 25.5728L181.001 23.0728L180.626 23.0728L180.976 22.5728C180.976 23.2394 180.81 23.8144 180.476 24.2978C180.143 24.7811 179.668 25.1561 179.051 25.4228C178.435 25.6894 177.693 25.8228 176.826 25.8228ZM177.376 23.9228C178.476 23.9228 179.351 23.6561 180.001 23.1228C180.651 22.5894 180.976 21.8644 180.976 20.9478L180.976 19.0228L176.976 19.0228C176.243 19.0228 175.643 19.2478 175.176 19.6978C174.726 20.1311 174.501 20.7144 174.501 21.4478C174.501 22.2144 174.751 22.8228 175.251 23.2728C175.768 23.7061 176.476 23.9228 177.376 23.9228ZM188.317 25.5728L188.317 11.8228L190.567 11.8228L190.567 14.4478L191.042 14.4478L190.567 15.0478C190.567 13.9811 190.892 13.1394 191.542 12.5228C192.208 11.8894 193.125 11.5728 194.292 11.5728C195.725 11.5728 196.825 12.0061 197.592 12.8728C198.375 13.7228 198.767 14.9394 198.767 16.5228L198.767 17.6978L196.517 17.6978L196.517 16.5228C196.517 15.5061 196.267 14.7561 195.767 14.2728C195.267 13.7728 194.542 13.5228 193.592 13.5228C192.608 13.5228 191.858 13.8061 191.342 14.3728C190.825 14.9394 190.567 15.7561 190.567 16.8228L190.567 25.5728L188.317 25.5728ZM208.007 25.8228C206.923 25.8228 205.973 25.6061 205.157 25.1728C204.357 24.7228 203.732 24.0894 203.282 23.2728C202.832 22.4394 202.607 21.4561 202.607 20.3228L202.607 17.0728C202.607 15.9228 202.832 14.9394 203.282 14.1228C203.732 13.3061 204.357 12.6811 205.157 12.2478C205.974 11.7978 206.924 11.5728 208.007 11.5728C209.09 11.5728 210.032 11.7894 210.832 12.2228C211.649 12.6561 212.282 13.2644 212.732 14.0478C213.182 14.8311 213.407 15.7561 213.407 16.8228L213.407 19.2728L204.807 19.2728L204.807 20.5728C204.807 21.5894 205.098 22.3978 205.682 22.9978C206.265 23.5811 207.04 23.8728 208.007 23.8728C208.84 23.8728 209.523 23.7144 210.057 23.3978C210.607 23.0644 210.94 22.6228 211.057 22.0728L213.307 22.0728C213.157 23.2228 212.598 24.1394 211.632 24.8228C210.665 25.4894 209.457 25.8228 208.007 25.8228ZM211.207 17.7478L211.207 16.8228C211.207 15.7394 210.924 14.9061 210.357 14.3228C209.807 13.7228 209.024 13.4228 208.007 13.4228C206.99 13.4228 206.199 13.7228 205.632 14.3228C205.082 14.9061 204.807 15.7394 204.807 16.8228L204.807 17.5228L211.382 17.5228L211.207 17.7478Z" fill="#0152A8"/>
<path d="M36.0422 6.72923H35.8856C35.7584 6.39104 35.5595 6.08436 35.3027 5.83022C35.0458 5.57607 34.737 5.38047 34.3975 5.25682L21.8664 0.698625C21.3101 0.49499 20.6997 0.49499 20.1434 0.698625L7.61224 5.25682C7.27272 5.38047 6.96396 5.57607 6.70711 5.83022C6.45026 6.08436 6.2514 6.39104 6.12417 6.72923H5.96753C4.63942 6.73336 3.36688 7.26278 2.42775 8.20191C1.48863 9.14103 0.959209 10.4136 0.955078 11.7417L0.955078 15.501C0.959209 16.8291 1.48863 18.1017 2.42775 19.0408C3.36688 19.9799 4.63942 20.5093 5.96753 20.5135H6.78205C7.81587 22.7691 9.80519 24.7427 12.6717 26.3404C15.9768 28.1731 19.5011 29.0033 20.488 29.2069L21.0049 29.2539L21.5218 29.2069C22.5086 29.0033 26.033 28.1731 29.3381 26.3404C32.2046 24.7427 34.1939 22.7691 35.2277 20.5135H36.0422C37.3704 20.5093 38.6429 19.9799 39.582 19.0408C40.5211 18.1017 41.0506 16.8291 41.0547 15.501V11.7417C41.0506 10.4136 40.5211 9.14103 39.582 8.20191C38.6429 7.26278 37.3704 6.73336 36.0422 6.72923V6.72923ZM5.96753 18.0072C5.30284 18.0072 4.66537 17.7432 4.19536 17.2732C3.72535 16.8032 3.4613 16.1657 3.4613 15.501V11.7417C3.4613 11.077 3.72535 10.4395 4.19536 9.96951C4.66537 9.4995 5.30284 9.23546 5.96753 9.23546V16.7541C5.96709 17.1736 5.99851 17.5925 6.06151 18.0072H5.96753ZM27.2704 19.2604H14.7393C14.407 19.2604 14.0882 19.1283 13.8532 18.8933C13.6182 18.6583 13.4862 18.3396 13.4862 18.0072C13.4862 17.6749 13.6182 17.3562 13.8532 17.1212C14.0882 16.8862 14.407 16.7541 14.7393 16.7541H27.2704C27.6028 16.7541 27.9215 16.8862 28.1565 17.1212C28.3915 17.3562 28.5236 17.6749 28.5236 18.0072C28.5236 18.3396 28.3915 18.6583 28.1565 18.8933C27.9215 19.1283 27.6028 19.2604 27.2704 19.2604ZM27.2704 14.2479H14.7393C14.407 14.2479 14.0882 14.1159 13.8532 13.8809C13.6182 13.6459 13.4862 13.3271 13.4862 12.9948C13.4862 12.6624 13.6182 12.3437 13.8532 12.1087C14.0882 11.8737 14.407 11.7417 14.7393 11.7417H27.2704C27.6028 11.7417 27.9215 11.8737 28.1565 12.1087C28.3915 12.3437 28.5236 12.6624 28.5236 12.9948C28.5236 13.3271 28.3915 13.6459 28.1565 13.8809C27.9215 14.1159 27.6028 14.2479 27.2704 14.2479ZM38.5485 15.501C38.5485 16.1657 38.2844 16.8032 37.8144 17.2732C37.3444 17.7432 36.7069 18.0072 36.0422 18.0072H35.9483C36.0113 17.5925 36.0427 17.1736 36.0422 16.7541V9.23546C36.7069 9.23546 37.3444 9.4995 37.8144 9.96951C38.2844 10.4395 38.5485 11.077 38.5485 11.7417V15.501Z" fill="#0FE3AF"/>
</svg>
